<?xml version="1.0" encoding="UTF-8"?>
<svg id="Layer_2" data-name="Layer 2" xmlns="http://www.w3.org/2000/svg" viewBox="0 0 102.96 102.96">
  <defs>
    <style>
      .cls-1 {
        fill: #fffaf0;
      }

      .cls-2 {
        fill: #ffb200;
      }
    </style>
  </defs>
  <g id="Layer_3" data-name="Layer 3">
    <g>
      <rect class="cls-2" x="0" y="0" width="102.96" height="102.96" rx="51.48" ry="51.48"/>
      <g>
        <path class="cls-1" d="M71.61,21.61v30.7c0,2.15-.52,3.86-1.56,5.11-1.04,1.26-2.46,1.89-4.26,1.89-1.54,0-2.76-.49-3.68-1.48-.92-.98-1.37-2.32-1.37-3.99v-10.07h-9.77v12.81c0,3.46,1.01,6.22,3.02,8.26,2.01,2.04,4.7,3.06,8.07,3.06,2.56,0,4.73-.61,6.51-1.83,1.21-.83,2.22-1.91,3.05-3.25v4.31c0,2.01-.66,3.61-1.98,4.81-1.32,1.2-3.04,1.8-5.16,1.8-1.5,0-3.17-.28-5-.85-1.83-.57-3.46-1.29-4.89-2.16l-2.36,6.67c1.13,.77,2.46,1.44,3.98,2.02,1.52,.58,3.09,1.04,4.72,1.37,1.63,.33,3.19,.51,4.69,.55,3.07,0,5.79-.58,8.15-1.75,2.36-1.17,4.21-2.82,5.54-4.95,1.34-2.13,2-4.58,2-7.36V21.61h-9.72Z"/>
        <path class="cls-1" d="M46.95,55.33c-.89-.51-1.94-.77-3.15-.77-1.37,0-2.56,.32-3.56,.97-.96,.61-1.7,1.51-2.24,2.68-.09-.24-.19-.48-.31-.7-.49-.94-1.18-1.66-2.07-2.17-.89-.51-1.94-.77-3.15-.77-1.37,0-2.56,.32-3.56,.97-.74,.48-1.35,1.12-1.84,1.93v-2.65h-5.43v26.55h5.43v-18.31c0-1.09,.29-1.98,.86-2.67,.57-.69,1.34-1.05,2.3-1.07,.84,0,1.5,.27,2,.8,.49,.53,.74,1.27,.74,2.22v19.03h5.47v-18.31c0-1.09,.28-1.98,.84-2.67,.56-.69,1.32-1.05,2.29-1.07,.84,0,1.5,.27,2,.8,.49,.53,.74,1.27,.74,2.22v19.03h5.47v-20.54c0-1.27-.25-2.37-.74-3.31-.49-.94-1.18-1.66-2.07-2.17Z"/>
        <path class="cls-1" d="M53.7,39.08c.86,.93,1.88,1.65,3.03,2.17,1.16,.52,2.42,.77,3.78,.77s2.64-.26,3.79-.77c1.15-.52,2.16-1.24,3.02-2.17,.86-.93,1.54-2.02,2.01-3.27,.48-1.25,.72-2.6,.72-4.07s-.24-2.78-.72-4.01c-.48-1.23-1.15-2.3-2.01-3.22-.86-.92-1.87-1.63-3.02-2.14-1.15-.51-2.41-.76-3.79-.76s-2.62,.25-3.78,.76c-1.16,.51-2.17,1.22-3.03,2.13-.86,.91-1.54,1.99-2.01,3.22-.48,1.24-.72,2.58-.72,4.03s.24,2.82,.72,4.07c.48,1.25,1.15,2.34,2.01,3.27Zm2.38-9.63c.25-.7,.6-1.32,1.05-1.86,.44-.54,.97-.95,1.56-1.24,.6-.29,1.22-.44,1.88-.44s1.27,.15,1.85,.44c.58,.29,1.09,.7,1.52,1.24,.44,.53,.78,1.15,1.02,1.86,.24,.7,.37,1.48,.37,2.32s-.12,1.6-.37,2.32c-.24,.72-.58,1.35-1.02,1.89-.44,.53-.94,.95-1.52,1.25-.58,.3-1.2,.45-1.85,.45s-1.28-.15-1.86-.45c-.59-.3-1.11-.72-1.56-1.25-.45-.54-.81-1.16-1.06-1.89-.25-.72-.38-1.5-.38-2.32s.13-1.62,.38-2.32Z"/>
        <path class="cls-1" d="M45.48,41.42c2.27-2.05,3.4-4.95,3.4-8.69,0-3.53-1.13-6.25-3.4-8.18-2.27-1.92-5.45-2.89-9.56-2.89h-14.28v31.26h9.01v-8.42h4.94l4.07,8.42h10.22l-6.21-10.19c.66-.38,1.26-.81,1.81-1.31Zm-14.83-12.63h5.27c1.37,0,2.44,.37,3.21,1.11,.77,.74,1.16,1.77,1.16,3.1,0,1.44-.39,2.54-1.16,3.29-.77,.76-1.84,1.13-3.21,1.13h-5.27v-8.64Z"/>
      </g>
    </g>
  </g>
</svg>